<?xml version="1.0" encoding="utf-8"?>
<svg viewBox="0 0 205 205" xmlns="http://www.w3.org/2000/svg">
  <g transform="matrix(0.10000000149011613, 0, 0, -0.1000000014901161, -0.741410032726094, 204.0732465123755)" fill="#000000" stroke="none">
    <ellipse style="fill: rgb(36, 37, 38);" cx="1003.237" cy="-1011.353" rx="977.418" ry="989.197" transform="matrix(1, 0, 0, -1, 0, 0)"/>
    <path d="M 1200 1022 L 1185 955 L 1110 949 C 1048 945 1044 943 1085 942 C 1130 940 1141 935 1173 902 L 1210 865 L 1192 835 C 1182 818 1158 776 1138 740 L 1101 674 L 1133 671 C 1184 666 1190 666 1288 692 C 1381 717 1410 730 1373 730 C 1359 730 1331 759 1283 823 C 1245 873 1211 920 1207 927 C 1203 933 1205 971 1211 1010 C 1225 1102 1219 1109 1200 1022 Z M 990 902 C 949 774 949 773 897 735 C 783 651 711 585 711 564 C 710 552 718 532 728 520 L 746 498 L 786 517 C 807 528 859 550 900 565 C 941 580 981 598 988 604 C 1000 616 1070 800 1070 821 C 1070 826 1054 838 1035 847 C 997 865 994 874 1012 917 C 1018 932 1024 952 1025 961 C 1026 970 1030 989 1034 1004 C 1037 1018 1038 1030 1035 1030 C 1033 1030 1012 972 990 902 Z M 428 324 C 467 350 540 393 590 419 C 670 461 679 469 665 480 C 645 497 590 575 590 587 C 590 592 605 604 624 613 C 673 636 799 796 799 835 C 800 852 789 910 775 965 C 761 1020 750 1073 750 1083 C 750 1099 746 1098 703 1077 C 571 1011 454 1003 367 1053 C 303 1091 235 1170 220 1225 C 175 1385 294 1608 455 1669 C 684 1756 894 1689 908 1526 C 916 1429 859 1366 763 1365 C 717 1365 706 1369 679 1396 C 656 1420 650 1433 655 1449 C 663 1476 691 1476 715 1450 C 741 1421 794 1424 825 1455 C 868 1497 851 1567 788 1612 C 758 1633 707.887 1654.158 647.957 1653.763 C 569.825 1653.248 519.279 1635.882 468 1607 C 340.966 1535.45 248 1371 280 1249 C 306 1151 390 1087 493 1088 C 567 1088 620 1107 760 1184 C 837 1226 871 1239 890 1235 C 950 1222 1104 1282 1244 1374 C 1322 1424 1329 1427 1344 1412 C 1359 1397 1360 1397 1355 1411 C 1352 1420 1338 1433 1325 1440 C 1278 1465 1267 1557 1305 1600 C 1335 1634 1421 1663 1503 1668 L 1580 1673 L 1580 1636 C 1580 1601 1581 1600 1620 1600 C 1653 1600 1660 1597 1660 1581 C 1660 1570 1665 1558 1670 1555 C 1676 1552 1680 1529 1680 1504 C 1680 1446 1664 1430 1526 1355 C 1450 1313 1415 1288 1408 1270 C 1403 1256 1383 1176 1364 1091 L 1329 937 L 1381 859 C 1426 790 1437 780 1469 774 C 1489 771 1514 762 1525 755 C 1543 744 1604 745 1639 756 C 1647 758 1616 784 1568 815 L 1484 870 L 1466 965 C 1453 1034 1444 1060 1433 1060 C 1425 1060 1420 1063 1422 1068 C 1452 1127 1474 1185 1482 1230 C 1503 1338 1512 1319 1557 1080 L 1583 935 L 1639 873 C 1684 823 1703 810 1735 804 C 1757 801 1786 789 1801 779 C 1819 766 1848 761 1906 759 L 1947.51 755.638 C 1940.643 729.44 1932.424 704.03 1923.601 678.745 C 1854.903 681.24 1706.849 675.453 1618 665 C 1270 623 924 494 635 300 C 554.385 246.257 500.273 191.567 481.171 175.063 C 466.043 179.432 393.489 235.199 357.297 269.259 L 428 324 Z M 1482 1624 C 1452 1604 1451 1538 1480 1513 C 1491 1503 1509 1487 1520 1477 C 1531 1467 1543 1446 1547 1430 L 1552 1400 L 1592 1422 C 1614 1435 1636 1452 1641 1462 C 1648 1476 1646 1478 1626 1477 C 1593 1474 1592 1494 1625 1498 C 1661 1503 1660 1540 1624 1540 C 1608 1540 1600 1545 1603 1553 C 1605 1559 1594 1570 1578 1577 C 1558 1586 1550 1596 1550 1615 C 1550 1634 1545 1640 1527 1640 C 1515 1640 1494 1633 1482 1624 Z M 1525 1570 C 1525 1557 1519 1545 1513 1543 C 1497 1537 1486 1564 1494 1586 C 1503 1609 1525 1597 1525 1570 Z M 1382 1548 C 1365 1531 1367 1495 1388 1478 C 1420 1451 1435 1446 1414 1471 C 1382 1508 1378 1518 1390 1540 C 1402 1563 1400 1566 1382 1548 Z" style="fill: rgb(255, 255, 255);"/>
  </g>
</svg>